STARTFONT 2.1
COMMENT
COMMENT Converted from OpenType font "DSEG7Classic-Bold.ttf" by "otf2bdf 3.0".
COMMENT
FONT -FreeType-DSEG7 Classic-Bold-R-Normal--60-600-72-72-P-333-ISO10646-1
SIZE 60 72 72
FONTBOUNDINGBOX 47 60 -4 0
STARTPROPERTIES 19
FOUNDRY "FreeType"
FAMILY_NAME "DSEG7 Classic"
WEIGHT_NAME "Bold"
SLANT "R"
SETWIDTH_NAME "Normal"
ADD_STYLE_NAME ""
PIXEL_SIZE 60
POINT_SIZE 600
RESOLUTION_X 72
RESOLUTION_Y 72
SPACING "P"
AVERAGE_WIDTH 333
CHARSET_REGISTRY "ISO10646"
CHARSET_ENCODING "1"
FONT_ASCENT 60
FONT_DESCENT 0
COPYRIGHT "Created by Keshikan  with FontForge 2.0 (http://fontforge.sf.net)  "
_OTF_FONTFILE "DSEG7Classic-Bold.ttf"
_OTF_PSNAME "DSEG7Classic-Bold"
ENDPROPERTIES
CHARS 69
STARTCHAR 0020
ENCODING 32
SWIDTH 200 0
DWIDTH 12 0
BBX 0 0 0 0
BITMAP
ENDCHAR
STARTCHAR 0021
ENCODING 33
SWIDTH 816 0
DWIDTH 49 0
BBX 0 0 0 0
BITMAP
ENDCHAR
STARTCHAR 002D
ENCODING 45
SWIDTH 816 0
DWIDTH 49 0
BBX 27 7 11 27
BITMAP
3FFFFF80
7FFFFFC0
FFFFFFE0
FFFFFFE0
7FFFFFC0
3FFFFF80
1FFFFF00
ENDCHAR
STARTCHAR 002E
ENCODING 46
SWIDTH 0 0
DWIDTH 0 0
BBX 7 7 -4 1
BITMAP
7C
FE
FE
FE
FE
7E
3C
ENDCHAR
STARTCHAR 0030
ENCODING 48
SWIDTH 816 0
DWIDTH 49 0
BBX 37 59 6 1
BITMAP
0FFFFFFF80
1FFFFFFFC0
0FFFFFFF80
67FFFFFF30
F3FFFFFE78
F9FFFFFCF8
FCFFFFF9F8
FE000003F8
FE000003F8
FE000003F8
FE000003F8
FE000003F8
FE000003F8
FE000003F8
FE000003F8
FE000003F8
FE000003F8
FE000003F8
FE000003F8
FE000003F8
FE000003F8
FE000003F8
FE000003F8
FE000003F8
FE000003F8
FE000003F8
FC000001F8
F8000000F8
F000000078
0000000000
F000000078
F8000000F8
FC000001F8
FE000003F8
FE000003F8
FE000003F8
FE000003F8
FE000003F8
FE000003F8
FE000003F8
FE000003F8
FE000003F8
FE000003F8
FE000003F8
FE000003F8
FE000003F8
FE000003F8
FE000003F8
FE000003F8
FE000003F8
FE000003F8
FE000003F8
FDFFFFFDF8
FBFFFFFEF8
F7FFFFFF78
6FFFFFFFB0
1FFFFFFFC0
1FFFFFFFC0
0FFFFFFF80
ENDCHAR
STARTCHAR 0031
ENCODING 49
SWIDTH 816 0
DWIDTH 49 0
BBX 7 54 36 3
BITMAP
04
0E
1E
3E
7E
FE
FE
FE
FE
FE
FE
FE
FE
FE
FE
FE
FE
FE
FE
FE
FE
FE
FE
7E
3E
1E
0E
00
1E
3E
7E
FE
FE
FE
FE
FE
FE
FE
FE
FE
FE
FE
FE
FE
FE
FE
FE
FE
FE
7E
3E
1E
0E
06
ENDCHAR
STARTCHAR 0032
ENCODING 50
SWIDTH 816 0
DWIDTH 49 0
BBX 37 59 6 1
BITMAP
0FFFFFFF80
1FFFFFFFC0
0FFFFFFF80
07FFFFFF30
03FFFFFE78
01FFFFFCF8
00FFFFF9F8
00000003F8
00000003F8
00000003F8
00000003F8
00000003F8
00000003F8
00000003F8
00000003F8
00000003F8
00000003F8
00000003F8
00000003F8
00000003F8
00000003F8
00000003F8
00000003F8
00000003F8
00000003F8
00000003F8
01FFFFFDF8
03FFFFFEF8
07FFFFFF78
07FFFFFF00
F3FFFFFE00
F9FFFFFC00
FCFFFFF800
FE00000000
FE00000000
FE00000000
FE00000000
FE00000000
FE00000000
FE00000000
FE00000000
FE00000000
FE00000000
FE00000000
FE00000000
FE00000000
FE00000000
FE00000000
FE00000000
FE00000000
FE00000000
FE00000000
FDFFFFFC00
FBFFFFFE00
F7FFFFFF00
6FFFFFFF80
1FFFFFFFC0
1FFFFFFFC0
0FFFFFFF80
ENDCHAR
STARTCHAR 0033
ENCODING 51
SWIDTH 816 0
DWIDTH 49 0
BBX 34 59 9 1
BITMAP
7FFFFFFE00
FFFFFFFF00
7FFFFFFE80
3FFFFFFDC0
1FFFFFFBC0
0FFFFFF7C0
07FFFFEFC0
0000001FC0
0000001FC0
0000001FC0
0000001FC0
0000001FC0
0000001FC0
0000001FC0
0000001FC0
0000001FC0
0000001FC0
0000001FC0
0000001FC0
0000001FC0
0000001FC0
0000001FC0
0000001FC0
0000001FC0
0000001FC0
0000000FC0
07FFFFE7C0
0FFFFFF3C0
1FFFFFF9C0
3FFFFFFC00
1FFFFFFBC0
0FFFFFF7C0
07FFFFEFC0
0000001FC0
0000001FC0
0000001FC0
0000001FC0
0000001FC0
0000001FC0
0000001FC0
0000001FC0
0000001FC0
0000001FC0
0000001FC0
0000001FC0
0000001FC0
0000001FC0
0000001FC0
0000001FC0
0000001FC0
0000001FC0
0000000FC0
07FFFFE7C0
0FFFFFF3C0
1FFFFFF9C0
3FFFFFFC80
7FFFFFFE00
FFFFFFFE00
7FFFFFFC00
ENDCHAR
STARTCHAR 0034
ENCODING 52
SWIDTH 816 0
DWIDTH 49 0
BBX 37 54 6 2
BITMAP
4000000010
E000000038
F000000078
F8000000F8
FC000001F8
FE000003F8
FE000003F8
FE000003F8
FE000003F8
FE000003F8
FE000003F8
FE000003F8
FE000003F8
FE000003F8
FE000003F8
FE000003F8
FE000003F8
FE000003F8
FE000003F8
FE000003F8
FE000003F8
FE000003F8
FE000003F8
FE000003F8
FDFFFFFDF8
FBFFFFFEF8
F7FFFFFF78
07FFFFFF00
03FFFFFE78
01FFFFFCF8
00FFFFF9F8
00000003F8
00000003F8
00000003F8
00000003F8
00000003F8
00000003F8
00000003F8
00000003F8
00000003F8
00000003F8
00000003F8
00000003F8
00000003F8
00000003F8
00000003F8
00000003F8
00000003F8
00000003F8
00000003F8
00000001F8
00000000F8
0000000078
0000000030
ENDCHAR
STARTCHAR 0035
ENCODING 53
SWIDTH 816 0
DWIDTH 49 0
BBX 37 59 6 1
BITMAP
0FFFFFFF80
1FFFFFFFC0
0FFFFFFF80
67FFFFFF00
F3FFFFFE00
F9FFFFFC00
FCFFFFF800
FE00000000
FE00000000
FE00000000
FE00000000
FE00000000
FE00000000
FE00000000
FE00000000
FE00000000
FE00000000
FE00000000
FE00000000
FE00000000
FE00000000
FE00000000
FE00000000
FE00000000
FE00000000
FE00000000
FDFFFFFC00
FBFFFFFE00
F7FFFFFF00
07FFFFFF00
03FFFFFE78
01FFFFFCF8
00FFFFF9F8
00000003F8
00000003F8
00000003F8
00000003F8
00000003F8
00000003F8
00000003F8
00000003F8
00000003F8
00000003F8
00000003F8
00000003F8
00000003F8
00000003F8
00000003F8
00000003F8
00000003F8
00000003F8
00000003F8
01FFFFFDF8
03FFFFFEF8
07FFFFFF78
0FFFFFFFB0
1FFFFFFFC0
1FFFFFFFC0
0FFFFFFF80
ENDCHAR
STARTCHAR 0036
ENCODING 54
SWIDTH 816 0
DWIDTH 49 0
BBX 37 59 6 1
BITMAP
0FFFFFFF80
1FFFFFFFC0
0FFFFFFF80
67FFFFFF00
F3FFFFFE00
F9FFFFFC00
FCFFFFF800
FE00000000
FE00000000
FE00000000
FE00000000
FE00000000
FE00000000
FE00000000
FE00000000
FE00000000
FE00000000
FE00000000
FE00000000
FE00000000
FE00000000
FE00000000
FE00000000
FE00000000
FE00000000
FE00000000
FDFFFFFC00
FBFFFFFE00
F7FFFFFF00
07FFFFFF00
F3FFFFFE78
F9FFFFFCF8
FCFFFFF9F8
FE000003F8
FE000003F8
FE000003F8
FE000003F8
FE000003F8
FE000003F8
FE000003F8
FE000003F8
FE000003F8
FE000003F8
FE000003F8
FE000003F8
FE000003F8
FE000003F8
FE000003F8
FE000003F8
FE000003F8
FE000003F8
FE000003F8
FDFFFFFDF8
FBFFFFFEF8
F7FFFFFF78
6FFFFFFFB0
1FFFFFFFC0
1FFFFFFFC0
0FFFFFFF80
ENDCHAR
STARTCHAR 0037
ENCODING 55
SWIDTH 816 0
DWIDTH 49 0
BBX 37 56 6 3
BITMAP
0FFFFFFF80
1FFFFFFFC0
0FFFFFFF80
67FFFFFF30
F3FFFFFE78
F9FFFFFCF8
FCFFFFF9F8
FE000003F8
FE000003F8
FE000003F8
FE000003F8
FE000003F8
FE000003F8
FE000003F8
FE000003F8
FE000003F8
FE000003F8
FE000003F8
FE000003F8
FE000003F8
FE000003F8
FE000003F8
FE000003F8
FE000003F8
FE000003F8
FE000003F8
FC000001F8
F8000000F8
F000000078
0000000000
0000000078
00000000F8
00000001F8
00000003F8
00000003F8
00000003F8
00000003F8
00000003F8
00000003F8
00000003F8
00000003F8
00000003F8
00000003F8
00000003F8
00000003F8
00000003F8
00000003F8
00000003F8
00000003F8
00000003F8
00000003F8
00000003F8
00000001F8
00000000F8
0000000078
0000000030
ENDCHAR
STARTCHAR 0038
ENCODING 56
SWIDTH 816 0
DWIDTH 49 0
BBX 37 59 6 1
BITMAP
0FFFFFFF80
1FFFFFFFC0
0FFFFFFF80
67FFFFFF30
F3FFFFFE78
F9FFFFFCF8
FCFFFFF9F8
FE000003F8
FE000003F8
FE000003F8
FE000003F8
FE000003F8
FE000003F8
FE000003F8
FE000003F8
FE000003F8
FE000003F8
FE000003F8
FE000003F8
FE000003F8
FE000003F8
FE000003F8
FE000003F8
FE000003F8
FE000003F8
FE000003F8
FDFFFFFDF8
FBFFFFFEF8
F7FFFFFF78
07FFFFFF00
F3FFFFFE78
F9FFFFFCF8
FCFFFFF9F8
FE000003F8
FE000003F8
FE000003F8
FE000003F8
FE000003F8
FE000003F8
FE000003F8
FE000003F8
FE000003F8
FE000003F8
FE000003F8
FE000003F8
FE000003F8
FE000003F8
FE000003F8
FE000003F8
FE000003F8
FE000003F8
FE000003F8
FDFFFFFDF8
FBFFFFFEF8
F7FFFFFF78
6FFFFFFFB0
1FFFFFFFC0
1FFFFFFFC0
0FFFFFFF80
ENDCHAR
STARTCHAR 0039
ENCODING 57
SWIDTH 816 0
DWIDTH 49 0
BBX 37 59 6 1
BITMAP
0FFFFFFF80
1FFFFFFFC0
0FFFFFFF80
67FFFFFF30
F3FFFFFE78
F9FFFFFCF8
FCFFFFF9F8
FE000003F8
FE000003F8
FE000003F8
FE000003F8
FE000003F8
FE000003F8
FE000003F8
FE000003F8
FE000003F8
FE000003F8
FE000003F8
FE000003F8
FE000003F8
FE000003F8
FE000003F8
FE000003F8
FE000003F8
FE000003F8
FE000003F8
FDFFFFFDF8
FBFFFFFEF8
F7FFFFFF78
07FFFFFF00
03FFFFFE78
01FFFFFCF8
00FFFFF9F8
00000003F8
00000003F8
00000003F8
00000003F8
00000003F8
00000003F8
00000003F8
00000003F8
00000003F8
00000003F8
00000003F8
00000003F8
00000003F8
00000003F8
00000003F8
00000003F8
00000003F8
00000003F8
00000003F8
01FFFFFDF8
03FFFFFEF8
07FFFFFF78
0FFFFFFFB0
1FFFFFFFC0
1FFFFFFFC0
0FFFFFFF80
ENDCHAR
STARTCHAR 003A
ENCODING 58
SWIDTH 200 0
DWIDTH 12 0
BBX 7 32 2 13
BITMAP
3C
7E
FE
FE
FE
FE
7C
00
00
00
00
00
00
00
00
00
00
00
00
00
00
00
00
00
00
7C
FE
FE
FE
FE
7E
3C
ENDCHAR
STARTCHAR 0041
ENCODING 65
SWIDTH 816 0
DWIDTH 49 0
BBX 37 56 6 3
BITMAP
0FFFFFFF80
1FFFFFFFC0
0FFFFFFF80
67FFFFFF30
F3FFFFFE78
F9FFFFFCF8
FCFFFFF9F8
FE000003F8
FE000003F8
FE000003F8
FE000003F8
FE000003F8
FE000003F8
FE000003F8
FE000003F8
FE000003F8
FE000003F8
FE000003F8
FE000003F8
FE000003F8
FE000003F8
FE000003F8
FE000003F8
FE000003F8
FE000003F8
FE000003F8
FDFFFFFDF8
FBFFFFFEF8
F7FFFFFF78
07FFFFFF00
F3FFFFFE78
F9FFFFFCF8
FCFFFFF9F8
FE000003F8
FE000003F8
FE000003F8
FE000003F8
FE000003F8
FE000003F8
FE000003F8
FE000003F8
FE000003F8
FE000003F8
FE000003F8
FE000003F8
FE000003F8
FE000003F8
FE000003F8
FE000003F8
FE000003F8
FE000003F8
FE000003F8
FC000001F8
F8000000F8
F000000078
6000000030
ENDCHAR
STARTCHAR 0042
ENCODING 66
SWIDTH 816 0
DWIDTH 49 0
BBX 37 57 6 0
BITMAP
4000000000
E000000000
F000000000
F800000000
FC00000000
FE00000000
FE00000000
FE00000000
FE00000000
FE00000000
FE00000000
FE00000000
FE00000000
FE00000000
FE00000000
FE00000000
FE00000000
FE00000000
FE00000000
FE00000000
FE00000000
FE00000000
FE00000000
FE00000000
FDFFFFFC00
FBFFFFFE00
F7FFFFFF00
07FFFFFF00
F3FFFFFE78
F9FFFFFCF8
FCFFFFF9F8
FE000003F8
FE000003F8
FE000003F8
FE000003F8
FE000003F8
FE000003F8
FE000003F8
FE000003F8
FE000003F8
FE000003F8
FE000003F8
FE000003F8
FE000003F8
FE000003F8
FE000003F8
FE000003F8
FE000003F8
FE000003F8
FE000003F8
FDFFFFFDF8
FBFFFFFEF8
F7FFFFFF78
6FFFFFFFB0
1FFFFFFFC0
1FFFFFFFC0
0FFFFFFF80
ENDCHAR
STARTCHAR 0043
ENCODING 67
SWIDTH 816 0
DWIDTH 49 0
BBX 34 33 6 1
BITMAP
01FFFFFC00
03FFFFFE00
07FFFFFF00
07FFFFFF00
F3FFFFFE00
F9FFFFFC00
FCFFFFF800
FE00000000
FE00000000
FE00000000
FE00000000
FE00000000
FE00000000
FE00000000
FE00000000
FE00000000
FE00000000
FE00000000
FE00000000
FE00000000
FE00000000
FE00000000
FE00000000
FE00000000
FE00000000
FE00000000
FDFFFFFC00
FBFFFFFE00
F7FFFFFF00
6FFFFFFF80
1FFFFFFFC0
1FFFFFFFC0
0FFFFFFF80
ENDCHAR
STARTCHAR 0044
ENCODING 68
SWIDTH 816 0
DWIDTH 49 0
BBX 37 57 6 0
BITMAP
0000000010
0000000038
0000000078
00000000F8
00000001F8
00000003F8
00000003F8
00000003F8
00000003F8
00000003F8
00000003F8
00000003F8
00000003F8
00000003F8
00000003F8
00000003F8
00000003F8
00000003F8
00000003F8
00000003F8
00000003F8
00000003F8
00000003F8
00000003F8
01FFFFFDF8
03FFFFFEF8
07FFFFFF78
07FFFFFF00
F3FFFFFE78
F9FFFFFCF8
FCFFFFF9F8
FE000003F8
FE000003F8
FE000003F8
FE000003F8
FE000003F8
FE000003F8
FE000003F8
FE000003F8
FE000003F8
FE000003F8
FE000003F8
FE000003F8
FE000003F8
FE000003F8
FE000003F8
FE000003F8
FE000003F8
FE000003F8
FE000003F8
FDFFFFFDF8
FBFFFFFEF8
F7FFFFFF78
6FFFFFFFB0
1FFFFFFFC0
1FFFFFFFC0
0FFFFFFF80
ENDCHAR
STARTCHAR 0045
ENCODING 69
SWIDTH 816 0
DWIDTH 49 0
BBX 34 59 6 1
BITMAP
0FFFFFFF80
1FFFFFFFC0
0FFFFFFF80
67FFFFFF00
F3FFFFFE00
F9FFFFFC00
FCFFFFF800
FE00000000
FE00000000
FE00000000
FE00000000
FE00000000
FE00000000
FE00000000
FE00000000
FE00000000
FE00000000
FE00000000
FE00000000
FE00000000
FE00000000
FE00000000
FE00000000
FE00000000
FE00000000
FE00000000
FDFFFFFC00
FBFFFFFE00
F7FFFFFF00
07FFFFFF00
F3FFFFFE00
F9FFFFFC00
FCFFFFF800
FE00000000
FE00000000
FE00000000
FE00000000
FE00000000
FE00000000
FE00000000
FE00000000
FE00000000
FE00000000
FE00000000
FE00000000
FE00000000
FE00000000
FE00000000
FE00000000
FE00000000
FE00000000
FE00000000
FDFFFFFC00
FBFFFFFE00
F7FFFFFF00
6FFFFFFF80
1FFFFFFFC0
1FFFFFFFC0
0FFFFFFF80
ENDCHAR
STARTCHAR 0046
ENCODING 70
SWIDTH 816 0
DWIDTH 49 0
BBX 34 56 6 3
BITMAP
0FFFFFFF80
1FFFFFFFC0
0FFFFFFF80
67FFFFFF00
F3FFFFFE00
F9FFFFFC00
FCFFFFF800
FE00000000
FE00000000
FE00000000
FE00000000
FE00000000
FE00000000
FE00000000
FE00000000
FE00000000
FE00000000
FE00000000
FE00000000
FE00000000
FE00000000
FE00000000
FE00000000
FE00000000
FE00000000
FE00000000
FDFFFFFC00
FBFFFFFE00
F7FFFFFF00
07FFFFFF00
F3FFFFFE00
F9FFFFFC00
FCFFFFF800
FE00000000
FE00000000
FE00000000
FE00000000
FE00000000
FE00000000
FE00000000
FE00000000
FE00000000
FE00000000
FE00000000
FE00000000
FE00000000
FE00000000
FE00000000
FE00000000
FE00000000
FE00000000
FE00000000
FC00000000
F800000000
F000000000
6000000000
ENDCHAR
STARTCHAR 0047
ENCODING 71
SWIDTH 816 0
DWIDTH 49 0
BBX 37 59 6 1
BITMAP
0FFFFFFF80
1FFFFFFFC0
0FFFFFFF80
67FFFFFF00
F3FFFFFE00
F9FFFFFC00
FCFFFFF800
FE00000000
FE00000000
FE00000000
FE00000000
FE00000000
FE00000000
FE00000000
FE00000000
FE00000000
FE00000000
FE00000000
FE00000000
FE00000000
FE00000000
FE00000000
FE00000000
FE00000000
FE00000000
FE00000000
FC00000000
F800000000
F000000000
0000000000
F000000078
F8000000F8
FC000001F8
FE000003F8
FE000003F8
FE000003F8
FE000003F8
FE000003F8
FE000003F8
FE000003F8
FE000003F8
FE000003F8
FE000003F8
FE000003F8
FE000003F8
FE000003F8
FE000003F8
FE000003F8
FE000003F8
FE000003F8
FE000003F8
FE000003F8
FDFFFFFDF8
FBFFFFFEF8
F7FFFFFF78
6FFFFFFFB0
1FFFFFFFC0
1FFFFFFFC0
0FFFFFFF80
ENDCHAR
STARTCHAR 0048
ENCODING 72
SWIDTH 816 0
DWIDTH 49 0
BBX 37 54 6 2
BITMAP
4000000000
E000000000
F000000000
F800000000
FC00000000
FE00000000
FE00000000
FE00000000
FE00000000
FE00000000
FE00000000
FE00000000
FE00000000
FE00000000
FE00000000
FE00000000
FE00000000
FE00000000
FE00000000
FE00000000
FE00000000
FE00000000
FE00000000
FE00000000
FDFFFFFC00
FBFFFFFE00
F7FFFFFF00
07FFFFFF00
F3FFFFFE78
F9FFFFFCF8
FCFFFFF9F8
FE000003F8
FE000003F8
FE000003F8
FE000003F8
FE000003F8
FE000003F8
FE000003F8
FE000003F8
FE000003F8
FE000003F8
FE000003F8
FE000003F8
FE000003F8
FE000003F8
FE000003F8
FE000003F8
FE000003F8
FE000003F8
FE000003F8
FC000001F8
F8000000F8
F000000078
6000000030
ENDCHAR
STARTCHAR 0049
ENCODING 73
SWIDTH 816 0
DWIDTH 49 0
BBX 7 26 36 2
BITMAP
1E
3E
7E
FE
FE
FE
FE
FE
FE
FE
FE
FE
FE
FE
FE
FE
FE
FE
FE
FE
FE
7E
3E
1E
0E
06
ENDCHAR
STARTCHAR 004A
ENCODING 74
SWIDTH 816 0
DWIDTH 49 0
BBX 37 57 6 1
BITMAP
0000000010
0000000038
0000000078
00000000F8
00000001F8
00000003F8
00000003F8
00000003F8
00000003F8
00000003F8
00000003F8
00000003F8
00000003F8
00000003F8
00000003F8
00000003F8
00000003F8
00000003F8
00000003F8
00000003F8
00000003F8
00000003F8
00000003F8
00000003F8
00000001F8
0000000078
0000000038
E000000038
F0000000F8
F8000000F8
FC000001F8
FE000003F8
FE000003F8
FE000003F8
FE000003F8
FE000003F8
FE000003F8
FE000003F8
FE000003F8
FE000003F8
FE000003F8
FE000003F8
FE000003F8
FE000003F8
FE000003F8
FE000003F8
FE000003F8
FE000003F8
FE000003F8
FE000003F8
FDFFFFFDF8
FBFFFFFEF8
F7FFFFFF78
6FFFFFFFB0
1FFFFFFFC0
1FFFFFFFC0
0FFFFFFF80
ENDCHAR
STARTCHAR 004B
ENCODING 75
SWIDTH 816 0
DWIDTH 49 0
BBX 37 56 6 3
BITMAP
0FFFFFFF80
1FFFFFFFC0
0FFFFFFF80
67FFFFFF00
F3FFFFFE00
F9FFFFFC00
FCFFFFF800
FE00000000
FE00000000
FE00000000
FE00000000
FE00000000
FE00000000
FE00000000
FE00000000
FE00000000
FE00000000
FE00000000
FE00000000
FE00000000
FE00000000
FE00000000
FE00000000
FE00000000
FE00000000
FE00000000
FDFFFFFC00
FBFFFFFE00
F7FFFFFF00
07FFFFFF00
F3FFFFFE78
F9FFFFFCF8
FCFFFFF9F8
FE000003F8
FE000003F8
FE000003F8
FE000003F8
FE000003F8
FE000003F8
FE000003F8
FE000003F8
FE000003F8
FE000003F8
FE000003F8
FE000003F8
FE000003F8
FE000003F8
FE000003F8
FE000003F8
FE000003F8
FE000003F8
FE000003F8
FC000001F8
F8000000F8
F000000078
6000000030
ENDCHAR
STARTCHAR 004C
ENCODING 76
SWIDTH 816 0
DWIDTH 49 0
BBX 34 57 6 1
BITMAP
4000000000
E000000000
F000000000
F800000000
FC00000000
FE00000000
FE00000000
FE00000000
FE00000000
FE00000000
FE00000000
FE00000000
FE00000000
FE00000000
FE00000000
FE00000000
FE00000000
FE00000000
FE00000000
FE00000000
FE00000000
FE00000000
FE00000000
FC00000000
F800000000
F000000000
E000000000
E000000000
F000000000
F800000000
FC00000000
FE00000000
FE00000000
FE00000000
FE00000000
FE00000000
FE00000000
FE00000000
FE00000000
FE00000000
FE00000000
FE00000000
FE00000000
FE00000000
FE00000000
FE00000000
FE00000000
FE00000000
FE00000000
FE00000000
FDFFFFFC00
FBFFFFFE00
F7FFFFFF00
6FFFFFFF80
1FFFFFFFC0
1FFFFFFFC0
0FFFFFFF80
ENDCHAR
STARTCHAR 004D
ENCODING 77
SWIDTH 816 0
DWIDTH 49 0
BBX 37 56 6 3
BITMAP
0FFFFFFF80
1FFFFFFFC0
0FFFFFFF80
67FFFFFF30
F3FFFFFE78
F9FFFFFCF8
FCFFFFF9F8
FE000003F8
FE000003F8
FE000003F8
FE000003F8
FE000003F8
FE000003F8
FE000003F8
FE000003F8
FE000003F8
FE000003F8
FE000003F8
FE000003F8
FE000003F8
FE000003F8
FE000003F8
FE000003F8
FE000003F8
FE000003F8
FE000003F8
FC000001F8
F8000000F8
F000000078
0000000000
F000000078
F8000000F8
FC000001F8
FE000003F8
FE000003F8
FE000003F8
FE000003F8
FE000003F8
FE000003F8
FE000003F8
FE000003F8
FE000003F8
FE000003F8
FE000003F8
FE000003F8
FE000003F8
FE000003F8
FE000003F8
FE000003F8
FE000003F8
FE000003F8
FE000003F8
FC000001F8
F8000000F8
F000000078
6000000030
ENDCHAR
STARTCHAR 004E
ENCODING 78
SWIDTH 816 0
DWIDTH 49 0
BBX 37 30 6 3
BITMAP
01FFFFFC00
03FFFFFE00
07FFFFFF00
07FFFFFF00
F3FFFFFE78
F9FFFFFCF8
FCFFFFF9F8
FE000003F8
FE000003F8
FE000003F8
FE000003F8
FE000003F8
FE000003F8
FE000003F8
FE000003F8
FE000003F8
FE000003F8
FE000003F8
FE000003F8
FE000003F8
FE000003F8
FE000003F8
FE000003F8
FE000003F8
FE000003F8
FE000003F8
FC000001F8
F8000000F8
F000000078
6000000030
ENDCHAR
STARTCHAR 004F
ENCODING 79
SWIDTH 816 0
DWIDTH 49 0
BBX 37 33 6 1
BITMAP
01FFFFFC00
03FFFFFE00
07FFFFFF00
07FFFFFF00
F3FFFFFE78
F9FFFFFCF8
FCFFFFF9F8
FE000003F8
FE000003F8
FE000003F8
FE000003F8
FE000003F8
FE000003F8
FE000003F8
FE000003F8
FE000003F8
FE000003F8
FE000003F8
FE000003F8
FE000003F8
FE000003F8
FE000003F8
FE000003F8
FE000003F8
FE000003F8
FE000003F8
FDFFFFFDF8
FBFFFFFEF8
F7FFFFFF78
6FFFFFFFB0
1FFFFFFFC0
1FFFFFFFC0
0FFFFFFF80
ENDCHAR
STARTCHAR 0050
ENCODING 80
SWIDTH 816 0
DWIDTH 49 0
BBX 37 56 6 3
BITMAP
0FFFFFFF80
1FFFFFFFC0
0FFFFFFF80
67FFFFFF30
F3FFFFFE78
F9FFFFFCF8
FCFFFFF9F8
FE000003F8
FE000003F8
FE000003F8
FE000003F8
FE000003F8
FE000003F8
FE000003F8
FE000003F8
FE000003F8
FE000003F8
FE000003F8
FE000003F8
FE000003F8
FE000003F8
FE000003F8
FE000003F8
FE000003F8
FE000003F8
FE000003F8
FDFFFFFDF8
FBFFFFFEF8
F7FFFFFF78
07FFFFFF00
F3FFFFFE00
F9FFFFFC00
FCFFFFF800
FE00000000
FE00000000
FE00000000
FE00000000
FE00000000
FE00000000
FE00000000
FE00000000
FE00000000
FE00000000
FE00000000
FE00000000
FE00000000
FE00000000
FE00000000
FE00000000
FE00000000
FE00000000
FE00000000
FC00000000
F800000000
F000000000
6000000000
ENDCHAR
STARTCHAR 0051
ENCODING 81
SWIDTH 816 0
DWIDTH 49 0
BBX 37 56 6 3
BITMAP
0FFFFFFF80
1FFFFFFFC0
0FFFFFFF80
67FFFFFF30
F3FFFFFE78
F9FFFFFCF8
FCFFFFF9F8
FE000003F8
FE000003F8
FE000003F8
FE000003F8
FE000003F8
FE000003F8
FE000003F8
FE000003F8
FE000003F8
FE000003F8
FE000003F8
FE000003F8
FE000003F8
FE000003F8
FE000003F8
FE000003F8
FE000003F8
FE000003F8
FE000003F8
FDFFFFFDF8
FBFFFFFEF8
F7FFFFFF78
07FFFFFF00
03FFFFFE78
01FFFFFCF8
00FFFFF9F8
00000003F8
00000003F8
00000003F8
00000003F8
00000003F8
00000003F8
00000003F8
00000003F8
00000003F8
00000003F8
00000003F8
00000003F8
00000003F8
00000003F8
00000003F8
00000003F8
00000003F8
00000003F8
00000003F8
00000001F8
00000000F8
0000000078
0000000030
ENDCHAR
STARTCHAR 0052
ENCODING 82
SWIDTH 816 0
DWIDTH 49 0
BBX 32 30 6 3
BITMAP
01FFFFFC
03FFFFFE
07FFFFFF
07FFFFFF
F3FFFFFE
F9FFFFFC
FCFFFFF8
FE000000
FE000000
FE000000
FE000000
FE000000
FE000000
FE000000
FE000000
FE000000
FE000000
FE000000
FE000000
FE000000
FE000000
FE000000
FE000000
FE000000
FE000000
FE000000
FC000000
F8000000
F0000000
60000000
ENDCHAR
STARTCHAR 0053
ENCODING 83
SWIDTH 816 0
DWIDTH 49 0
BBX 37 57 6 0
BITMAP
4000000000
E000000000
F000000000
F800000000
FC00000000
FE00000000
FE00000000
FE00000000
FE00000000
FE00000000
FE00000000
FE00000000
FE00000000
FE00000000
FE00000000
FE00000000
FE00000000
FE00000000
FE00000000
FE00000000
FE00000000
FE00000000
FE00000000
FE00000000
FDFFFFFC00
FBFFFFFE00
F7FFFFFF00
07FFFFFF00
03FFFFFE78
01FFFFFCF8
00FFFFF9F8
00000003F8
00000003F8
00000003F8
00000003F8
00000003F8
00000003F8
00000003F8
00000003F8
00000003F8
00000003F8
00000003F8
00000003F8
00000003F8
00000003F8
00000003F8
00000003F8
00000003F8
00000003F8
00000003F8
01FFFFFDF8
03FFFFFEF8
07FFFFFF78
0FFFFFFFB0
1FFFFFFFC0
1FFFFFFFC0
0FFFFFFF80
ENDCHAR
STARTCHAR 0054
ENCODING 84
SWIDTH 816 0
DWIDTH 49 0
BBX 34 57 6 0
BITMAP
4000000000
E000000000
F000000000
F800000000
FC00000000
FE00000000
FE00000000
FE00000000
FE00000000
FE00000000
FE00000000
FE00000000
FE00000000
FE00000000
FE00000000
FE00000000
FE00000000
FE00000000
FE00000000
FE00000000
FE00000000
FE00000000
FE00000000
FE00000000
FDFFFFFC00
FBFFFFFE00
F7FFFFFF00
07FFFFFF00
F3FFFFFE00
F9FFFFFC00
FCFFFFF800
FE00000000
FE00000000
FE00000000
FE00000000
FE00000000
FE00000000
FE00000000
FE00000000
FE00000000
FE00000000
FE00000000
FE00000000
FE00000000
FE00000000
FE00000000
FE00000000
FE00000000
FE00000000
FE00000000
FDFFFFFC00
FBFFFFFE00
F7FFFFFF00
6FFFFFFF80
1FFFFFFFC0
1FFFFFFFC0
0FFFFFFF80
ENDCHAR
STARTCHAR 0055
ENCODING 85
SWIDTH 816 0
DWIDTH 49 0
BBX 37 30 6 0
BITMAP
E000000038
F0000000F8
F8000000F8
FC000001F8
FE000003F8
FE000003F8
FE000003F8
FE000003F8
FE000003F8
FE000003F8
FE000003F8
FE000003F8
FE000003F8
FE000003F8
FE000003F8
FE000003F8
FE000003F8
FE000003F8
FE000003F8
FE000003F8
FE000003F8
FE000003F8
FE000003F8
FDFFFFFDF8
FBFFFFFEF8
F7FFFFFF78
6FFFFFFFB0
1FFFFFFFC0
1FFFFFFFC0
0FFFFFFF80
ENDCHAR
STARTCHAR 0056
ENCODING 86
SWIDTH 816 0
DWIDTH 49 0
BBX 37 57 6 1
BITMAP
4000000010
E000000038
F000000078
F8000000F8
FC000001F8
FE000003F8
FE000003F8
FE000003F8
FE000003F8
FE000003F8
FE000003F8
FE000003F8
FE000003F8
FE000003F8
FE000003F8
FE000003F8
FE000003F8
FE000003F8
FE000003F8
FE000003F8
FE000003F8
FE000003F8
FE000003F8
FC000003F8
F8000001F8
F000000078
E000000038
E000000038
F0000000F8
F8000000F8
FC000001F8
FE000003F8
FE000003F8
FE000003F8
FE000003F8
FE000003F8
FE000003F8
FE000003F8
FE000003F8
FE000003F8
FE000003F8
FE000003F8
FE000003F8
FE000003F8
FE000003F8
FE000003F8
FE000003F8
FE000003F8
FE000003F8
FE000003F8
FDFFFFFDF8
FBFFFFFEF8
F7FFFFFF78
6FFFFFFFB0
1FFFFFFFC0
1FFFFFFFC0
0FFFFFFF80
ENDCHAR
STARTCHAR 0057
ENCODING 87
SWIDTH 816 0
DWIDTH 49 0
BBX 37 57 6 0
BITMAP
4000000010
E000000038
F000000078
F8000000F8
FC000001F8
FE000003F8
FE000003F8
FE000003F8
FE000003F8
FE000003F8
FE000003F8
FE000003F8
FE000003F8
FE000003F8
FE000003F8
FE000003F8
FE000003F8
FE000003F8
FE000003F8
FE000003F8
FE000003F8
FE000003F8
FE000003F8
FE000003F8
FDFFFFFDF8
FBFFFFFEF8
F7FFFFFF78
07FFFFFF00
F3FFFFFE78
F9FFFFFCF8
FCFFFFF9F8
FE000003F8
FE000003F8
FE000003F8
FE000003F8
FE000003F8
FE000003F8
FE000003F8
FE000003F8
FE000003F8
FE000003F8
FE000003F8
FE000003F8
FE000003F8
FE000003F8
FE000003F8
FE000003F8
FE000003F8
FE000003F8
FE000003F8
FDFFFFFDF8
FBFFFFFEF8
F7FFFFFF78
6FFFFFFFB0
1FFFFFFFC0
1FFFFFFFC0
0FFFFFFF80
ENDCHAR
STARTCHAR 0058
ENCODING 88
SWIDTH 816 0
DWIDTH 49 0
BBX 37 54 6 2
BITMAP
4000000010
E000000038
F000000078
F8000000F8
FC000001F8
FE000003F8
FE000003F8
FE000003F8
FE000003F8
FE000003F8
FE000003F8
FE000003F8
FE000003F8
FE000003F8
FE000003F8
FE000003F8
FE000003F8
FE000003F8
FE000003F8
FE000003F8
FE000003F8
FE000003F8
FE000003F8
FE000003F8
FDFFFFFDF8
FBFFFFFEF8
F7FFFFFF78
07FFFFFF00
F3FFFFFE78
F9FFFFFCF8
FCFFFFF9F8
FE000003F8
FE000003F8
FE000003F8
FE000003F8
FE000003F8
FE000003F8
FE000003F8
FE000003F8
FE000003F8
FE000003F8
FE000003F8
FE000003F8
FE000003F8
FE000003F8
FE000003F8
FE000003F8
FE000003F8
FE000003F8
FE000003F8
FC000001F8
F8000000F8
F000000078
6000000030
ENDCHAR
STARTCHAR 0059
ENCODING 89
SWIDTH 816 0
DWIDTH 49 0
BBX 37 57 6 0
BITMAP
4000000010
E000000038
F000000078
F8000000F8
FC000001F8
FE000003F8
FE000003F8
FE000003F8
FE000003F8
FE000003F8
FE000003F8
FE000003F8
FE000003F8
FE000003F8
FE000003F8
FE000003F8
FE000003F8
FE000003F8
FE000003F8
FE000003F8
FE000003F8
FE000003F8
FE000003F8
FE000003F8
FDFFFFFDF8
FBFFFFFEF8
F7FFFFFF78
07FFFFFF00
03FFFFFE78
01FFFFFCF8
00FFFFF9F8
00000003F8
00000003F8
00000003F8
00000003F8
00000003F8
00000003F8
00000003F8
00000003F8
00000003F8
00000003F8
00000003F8
00000003F8
00000003F8
00000003F8
00000003F8
00000003F8
00000003F8
00000003F8
00000003F8
01FFFFFDF8
03FFFFFEF8
07FFFFFF78
0FFFFFFFB0
1FFFFFFFC0
1FFFFFFFC0
0FFFFFFF80
ENDCHAR
STARTCHAR 005A
ENCODING 90
SWIDTH 816 0
DWIDTH 49 0
BBX 37 59 6 1
BITMAP
0FFFFFFF80
1FFFFFFFC0
0FFFFFFF80
07FFFFFF30
03FFFFFE78
01FFFFFCF8
00FFFFF9F8
00000003F8
00000003F8
00000003F8
00000003F8
00000003F8
00000003F8
00000003F8
00000003F8
00000003F8
00000003F8
00000003F8
00000003F8
00000003F8
00000003F8
00000003F8
00000003F8
00000003F8
00000003F8
00000003F8
00000001F8
00000000F8
0000000078
0000000000
F000000000
F800000000
FC00000000
FE00000000
FE00000000
FE00000000
FE00000000
FE00000000
FE00000000
FE00000000
FE00000000
FE00000000
FE00000000
FE00000000
FE00000000
FE00000000
FE00000000
FE00000000
FE00000000
FE00000000
FE00000000
FE00000000
FDFFFFFC00
FBFFFFFE00
F7FFFFFF00
6FFFFFFF80
1FFFFFFFC0
1FFFFFFFC0
0FFFFFFF80
ENDCHAR
STARTCHAR 005F
ENCODING 95
SWIDTH 816 0
DWIDTH 49 0
BBX 31 7 9 1
BITMAP
0FFFFFE0
1FFFFFF0
3FFFFFF8
7FFFFFFC
FFFFFFFE
FFFFFFFE
7FFFFFFC
ENDCHAR
STARTCHAR 0061
ENCODING 97
SWIDTH 816 0
DWIDTH 49 0
BBX 37 56 6 3
BITMAP
0FFFFFFF80
1FFFFFFFC0
0FFFFFFF80
67FFFFFF30
F3FFFFFE78
F9FFFFFCF8
FCFFFFF9F8
FE000003F8
FE000003F8
FE000003F8
FE000003F8
FE000003F8
FE000003F8
FE000003F8
FE000003F8
FE000003F8
FE000003F8
FE000003F8
FE000003F8
FE000003F8
FE000003F8
FE000003F8
FE000003F8
FE000003F8
FE000003F8
FE000003F8
FDFFFFFDF8
FBFFFFFEF8
F7FFFFFF78
07FFFFFF00
F3FFFFFE78
F9FFFFFCF8
FCFFFFF9F8
FE000003F8
FE000003F8
FE000003F8
FE000003F8
FE000003F8
FE000003F8
FE000003F8
FE000003F8
FE000003F8
FE000003F8
FE000003F8
FE000003F8
FE000003F8
FE000003F8
FE000003F8
FE000003F8
FE000003F8
FE000003F8
FE000003F8
FC000001F8
F8000000F8
F000000078
6000000030
ENDCHAR
STARTCHAR 0062
ENCODING 98
SWIDTH 816 0
DWIDTH 49 0
BBX 37 57 6 0
BITMAP
4000000000
E000000000
F000000000
F800000000
FC00000000
FE00000000
FE00000000
FE00000000
FE00000000
FE00000000
FE00000000
FE00000000
FE00000000
FE00000000
FE00000000
FE00000000
FE00000000
FE00000000
FE00000000
FE00000000
FE00000000
FE00000000
FE00000000
FE00000000
FDFFFFFC00
FBFFFFFE00
F7FFFFFF00
07FFFFFF00
F3FFFFFE78
F9FFFFFCF8
FCFFFFF9F8
FE000003F8
FE000003F8
FE000003F8
FE000003F8
FE000003F8
FE000003F8
FE000003F8
FE000003F8
FE000003F8
FE000003F8
FE000003F8
FE000003F8
FE000003F8
FE000003F8
FE000003F8
FE000003F8
FE000003F8
FE000003F8
FE000003F8
FDFFFFFDF8
FBFFFFFEF8
F7FFFFFF78
6FFFFFFFB0
1FFFFFFFC0
1FFFFFFFC0
0FFFFFFF80
ENDCHAR
STARTCHAR 0063
ENCODING 99
SWIDTH 816 0
DWIDTH 49 0
BBX 34 33 6 1
BITMAP
01FFFFFC00
03FFFFFE00
07FFFFFF00
07FFFFFF00
F3FFFFFE00
F9FFFFFC00
FCFFFFF800
FE00000000
FE00000000
FE00000000
FE00000000
FE00000000
FE00000000
FE00000000
FE00000000
FE00000000
FE00000000
FE00000000
FE00000000
FE00000000
FE00000000
FE00000000
FE00000000
FE00000000
FE00000000
FE00000000
FDFFFFFC00
FBFFFFFE00
F7FFFFFF00
6FFFFFFF80
1FFFFFFFC0
1FFFFFFFC0
0FFFFFFF80
ENDCHAR
STARTCHAR 0064
ENCODING 100
SWIDTH 816 0
DWIDTH 49 0
BBX 37 57 6 0
BITMAP
0000000010
0000000038
0000000078
00000000F8
00000001F8
00000003F8
00000003F8
00000003F8
00000003F8
00000003F8
00000003F8
00000003F8
00000003F8
00000003F8
00000003F8
00000003F8
00000003F8
00000003F8
00000003F8
00000003F8
00000003F8
00000003F8
00000003F8
00000003F8
01FFFFFDF8
03FFFFFEF8
07FFFFFF78
07FFFFFF00
F3FFFFFE78
F9FFFFFCF8
FCFFFFF9F8
FE000003F8
FE000003F8
FE000003F8
FE000003F8
FE000003F8
FE000003F8
FE000003F8
FE000003F8
FE000003F8
FE000003F8
FE000003F8
FE000003F8
FE000003F8
FE000003F8
FE000003F8
FE000003F8
FE000003F8
FE000003F8
FE000003F8
FDFFFFFDF8
FBFFFFFEF8
F7FFFFFF78
6FFFFFFFB0
1FFFFFFFC0
1FFFFFFFC0
0FFFFFFF80
ENDCHAR
STARTCHAR 0065
ENCODING 101
SWIDTH 816 0
DWIDTH 49 0
BBX 34 59 6 1
BITMAP
0FFFFFFF80
1FFFFFFFC0
0FFFFFFF80
67FFFFFF00
F3FFFFFE00
F9FFFFFC00
FCFFFFF800
FE00000000
FE00000000
FE00000000
FE00000000
FE00000000
FE00000000
FE00000000
FE00000000
FE00000000
FE00000000
FE00000000
FE00000000
FE00000000
FE00000000
FE00000000
FE00000000
FE00000000
FE00000000
FE00000000
FDFFFFFC00
FBFFFFFE00
F7FFFFFF00
07FFFFFF00
F3FFFFFE00
F9FFFFFC00
FCFFFFF800
FE00000000
FE00000000
FE00000000
FE00000000
FE00000000
FE00000000
FE00000000
FE00000000
FE00000000
FE00000000
FE00000000
FE00000000
FE00000000
FE00000000
FE00000000
FE00000000
FE00000000
FE00000000
FE00000000
FDFFFFFC00
FBFFFFFE00
F7FFFFFF00
6FFFFFFF80
1FFFFFFFC0
1FFFFFFFC0
0FFFFFFF80
ENDCHAR
STARTCHAR 0066
ENCODING 102
SWIDTH 816 0
DWIDTH 49 0
BBX 34 56 6 3
BITMAP
0FFFFFFF80
1FFFFFFFC0
0FFFFFFF80
67FFFFFF00
F3FFFFFE00
F9FFFFFC00
FCFFFFF800
FE00000000
FE00000000
FE00000000
FE00000000
FE00000000
FE00000000
FE00000000
FE00000000
FE00000000
FE00000000
FE00000000
FE00000000
FE00000000
FE00000000
FE00000000
FE00000000
FE00000000
FE00000000
FE00000000
FDFFFFFC00
FBFFFFFE00
F7FFFFFF00
07FFFFFF00
F3FFFFFE00
F9FFFFFC00
FCFFFFF800
FE00000000
FE00000000
FE00000000
FE00000000
FE00000000
FE00000000
FE00000000
FE00000000
FE00000000
FE00000000
FE00000000
FE00000000
FE00000000
FE00000000
FE00000000
FE00000000
FE00000000
FE00000000
FE00000000
FC00000000
F800000000
F000000000
6000000000
ENDCHAR
STARTCHAR 0067
ENCODING 103
SWIDTH 816 0
DWIDTH 49 0
BBX 37 59 6 1
BITMAP
0FFFFFFF80
1FFFFFFFC0
0FFFFFFF80
67FFFFFF00
F3FFFFFE00
F9FFFFFC00
FCFFFFF800
FE00000000
FE00000000
FE00000000
FE00000000
FE00000000
FE00000000
FE00000000
FE00000000
FE00000000
FE00000000
FE00000000
FE00000000
FE00000000
FE00000000
FE00000000
FE00000000
FE00000000
FE00000000
FE00000000
FC00000000
F800000000
F000000000
0000000000
F000000078
F8000000F8
FC000001F8
FE000003F8
FE000003F8
FE000003F8
FE000003F8
FE000003F8
FE000003F8
FE000003F8
FE000003F8
FE000003F8
FE000003F8
FE000003F8
FE000003F8
FE000003F8
FE000003F8
FE000003F8
FE000003F8
FE000003F8
FE000003F8
FE000003F8
FDFFFFFDF8
FBFFFFFEF8
F7FFFFFF78
6FFFFFFFB0
1FFFFFFFC0
1FFFFFFFC0
0FFFFFFF80
ENDCHAR
STARTCHAR 0068
ENCODING 104
SWIDTH 816 0
DWIDTH 49 0
BBX 37 54 6 2
BITMAP
4000000000
E000000000
F000000000
F800000000
FC00000000
FE00000000
FE00000000
FE00000000
FE00000000
FE00000000
FE00000000
FE00000000
FE00000000
FE00000000
FE00000000
FE00000000
FE00000000
FE00000000
FE00000000
FE00000000
FE00000000
FE00000000
FE00000000
FE00000000
FDFFFFFC00
FBFFFFFE00
F7FFFFFF00
07FFFFFF00
F3FFFFFE78
F9FFFFFCF8
FCFFFFF9F8
FE000003F8
FE000003F8
FE000003F8
FE000003F8
FE000003F8
FE000003F8
FE000003F8
FE000003F8
FE000003F8
FE000003F8
FE000003F8
FE000003F8
FE000003F8
FE000003F8
FE000003F8
FE000003F8
FE000003F8
FE000003F8
FE000003F8
FC000001F8
F8000000F8
F000000078
6000000030
ENDCHAR
STARTCHAR 0069
ENCODING 105
SWIDTH 816 0
DWIDTH 49 0
BBX 7 26 36 2
BITMAP
1E
3E
7E
FE
FE
FE
FE
FE
FE
FE
FE
FE
FE
FE
FE
FE
FE
FE
FE
FE
FE
7E
3E
1E
0E
06
ENDCHAR
STARTCHAR 006A
ENCODING 106
SWIDTH 816 0
DWIDTH 49 0
BBX 37 57 6 1
BITMAP
0000000010
0000000038
0000000078
00000000F8
00000001F8
00000003F8
00000003F8
00000003F8
00000003F8
00000003F8
00000003F8
00000003F8
00000003F8
00000003F8
00000003F8
00000003F8
00000003F8
00000003F8
00000003F8
00000003F8
00000003F8
00000003F8
00000003F8
00000003F8
00000001F8
0000000078
0000000038
E000000038
F0000000F8
F8000000F8
FC000001F8
FE000003F8
FE000003F8
FE000003F8
FE000003F8
FE000003F8
FE000003F8
FE000003F8
FE000003F8
FE000003F8
FE000003F8
FE000003F8
FE000003F8
FE000003F8
FE000003F8
FE000003F8
FE000003F8
FE000003F8
FE000003F8
FE000003F8
FDFFFFFDF8
FBFFFFFEF8
F7FFFFFF78
6FFFFFFFB0
1FFFFFFFC0
1FFFFFFFC0
0FFFFFFF80
ENDCHAR
STARTCHAR 006B
ENCODING 107
SWIDTH 816 0
DWIDTH 49 0
BBX 37 56 6 3
BITMAP
0FFFFFFF80
1FFFFFFFC0
0FFFFFFF80
67FFFFFF00
F3FFFFFE00
F9FFFFFC00
FCFFFFF800
FE00000000
FE00000000
FE00000000
FE00000000
FE00000000
FE00000000
FE00000000
FE00000000
FE00000000
FE00000000
FE00000000
FE00000000
FE00000000
FE00000000
FE00000000
FE00000000
FE00000000
FE00000000
FE00000000
FDFFFFFC00
FBFFFFFE00
F7FFFFFF00
07FFFFFF00
F3FFFFFE78
F9FFFFFCF8
FCFFFFF9F8
FE000003F8
FE000003F8
FE000003F8
FE000003F8
FE000003F8
FE000003F8
FE000003F8
FE000003F8
FE000003F8
FE000003F8
FE000003F8
FE000003F8
FE000003F8
FE000003F8
FE000003F8
FE000003F8
FE000003F8
FE000003F8
FE000003F8
FC000001F8
F8000000F8
F000000078
6000000030
ENDCHAR
STARTCHAR 006C
ENCODING 108
SWIDTH 816 0
DWIDTH 49 0
BBX 34 57 6 1
BITMAP
4000000000
E000000000
F000000000
F800000000
FC00000000
FE00000000
FE00000000
FE00000000
FE00000000
FE00000000
FE00000000
FE00000000
FE00000000
FE00000000
FE00000000
FE00000000
FE00000000
FE00000000
FE00000000
FE00000000
FE00000000
FE00000000
FE00000000
FC00000000
F800000000
F000000000
E000000000
E000000000
F000000000
F800000000
FC00000000
FE00000000
FE00000000
FE00000000
FE00000000
FE00000000
FE00000000
FE00000000
FE00000000
FE00000000
FE00000000
FE00000000
FE00000000
FE00000000
FE00000000
FE00000000
FE00000000
FE00000000
FE00000000
FE00000000
FDFFFFFC00
FBFFFFFE00
F7FFFFFF00
6FFFFFFF80
1FFFFFFFC0
1FFFFFFFC0
0FFFFFFF80
ENDCHAR
STARTCHAR 006D
ENCODING 109
SWIDTH 816 0
DWIDTH 49 0
BBX 37 56 6 3
BITMAP
0FFFFFFF80
1FFFFFFFC0
0FFFFFFF80
67FFFFFF30
F3FFFFFE78
F9FFFFFCF8
FCFFFFF9F8
FE000003F8
FE000003F8
FE000003F8
FE000003F8
FE000003F8
FE000003F8
FE000003F8
FE000003F8
FE000003F8
FE000003F8
FE000003F8
FE000003F8
FE000003F8
FE000003F8
FE000003F8
FE000003F8
FE000003F8
FE000003F8
FE000003F8
FC000001F8
F8000000F8
F000000078
0000000000
F000000078
F8000000F8
FC000001F8
FE000003F8
FE000003F8
FE000003F8
FE000003F8
FE000003F8
FE000003F8
FE000003F8
FE000003F8
FE000003F8
FE000003F8
FE000003F8
FE000003F8
FE000003F8
FE000003F8
FE000003F8
FE000003F8
FE000003F8
FE000003F8
FE000003F8
FC000001F8
F8000000F8
F000000078
6000000030
ENDCHAR
STARTCHAR 006E
ENCODING 110
SWIDTH 816 0
DWIDTH 49 0
BBX 37 30 6 3
BITMAP
01FFFFFC00
03FFFFFE00
07FFFFFF00
07FFFFFF00
F3FFFFFE78
F9FFFFFCF8
FCFFFFF9F8
FE000003F8
FE000003F8
FE000003F8
FE000003F8
FE000003F8
FE000003F8
FE000003F8
FE000003F8
FE000003F8
FE000003F8
FE000003F8
FE000003F8
FE000003F8
FE000003F8
FE000003F8
FE000003F8
FE000003F8
FE000003F8
FE000003F8
FC000001F8
F8000000F8
F000000078
6000000030
ENDCHAR
STARTCHAR 006F
ENCODING 111
SWIDTH 816 0
DWIDTH 49 0
BBX 37 33 6 1
BITMAP
01FFFFFC00
03FFFFFE00
07FFFFFF00
07FFFFFF00
F3FFFFFE78
F9FFFFFCF8
FCFFFFF9F8
FE000003F8
FE000003F8
FE000003F8
FE000003F8
FE000003F8
FE000003F8
FE000003F8
FE000003F8
FE000003F8
FE000003F8
FE000003F8
FE000003F8
FE000003F8
FE000003F8
FE000003F8
FE000003F8
FE000003F8
FE000003F8
FE000003F8
FDFFFFFDF8
FBFFFFFEF8
F7FFFFFF78
6FFFFFFFB0
1FFFFFFFC0
1FFFFFFFC0
0FFFFFFF80
ENDCHAR
STARTCHAR 0070
ENCODING 112
SWIDTH 816 0
DWIDTH 49 0
BBX 37 56 6 3
BITMAP
0FFFFFFF80
1FFFFFFFC0
0FFFFFFF80
67FFFFFF30
F3FFFFFE78
F9FFFFFCF8
FCFFFFF9F8
FE000003F8
FE000003F8
FE000003F8
FE000003F8
FE000003F8
FE000003F8
FE000003F8
FE000003F8
FE000003F8
FE000003F8
FE000003F8
FE000003F8
FE000003F8
FE000003F8
FE000003F8
FE000003F8
FE000003F8
FE000003F8
FE000003F8
FDFFFFFDF8
FBFFFFFEF8
F7FFFFFF78
07FFFFFF00
F3FFFFFE00
F9FFFFFC00
FCFFFFF800
FE00000000
FE00000000
FE00000000
FE00000000
FE00000000
FE00000000
FE00000000
FE00000000
FE00000000
FE00000000
FE00000000
FE00000000
FE00000000
FE00000000
FE00000000
FE00000000
FE00000000
FE00000000
FE00000000
FC00000000
F800000000
F000000000
6000000000
ENDCHAR
STARTCHAR 0071
ENCODING 113
SWIDTH 816 0
DWIDTH 49 0
BBX 37 56 6 3
BITMAP
0FFFFFFF80
1FFFFFFFC0
0FFFFFFF80
67FFFFFF30
F3FFFFFE78
F9FFFFFCF8
FCFFFFF9F8
FE000003F8
FE000003F8
FE000003F8
FE000003F8
FE000003F8
FE000003F8
FE000003F8
FE000003F8
FE000003F8
FE000003F8
FE000003F8
FE000003F8
FE000003F8
FE000003F8
FE000003F8
FE000003F8
FE000003F8
FE000003F8
FE000003F8
FDFFFFFDF8
FBFFFFFEF8
F7FFFFFF78
07FFFFFF00
03FFFFFE78
01FFFFFCF8
00FFFFF9F8
00000003F8
00000003F8
00000003F8
00000003F8
00000003F8
00000003F8
00000003F8
00000003F8
00000003F8
00000003F8
00000003F8
00000003F8
00000003F8
00000003F8
00000003F8
00000003F8
00000003F8
00000003F8
00000003F8
00000001F8
00000000F8
0000000078
0000000030
ENDCHAR
STARTCHAR 0072
ENCODING 114
SWIDTH 816 0
DWIDTH 49 0
BBX 32 30 6 3
BITMAP
01FFFFFC
03FFFFFE
07FFFFFF
07FFFFFF
F3FFFFFE
F9FFFFFC
FCFFFFF8
FE000000
FE000000
FE000000
FE000000
FE000000
FE000000
FE000000
FE000000
FE000000
FE000000
FE000000
FE000000
FE000000
FE000000
FE000000
FE000000
FE000000
FE000000
FE000000
FC000000
F8000000
F0000000
60000000
ENDCHAR
STARTCHAR 0073
ENCODING 115
SWIDTH 816 0
DWIDTH 49 0
BBX 37 57 6 0
BITMAP
4000000000
E000000000
F000000000
F800000000
FC00000000
FE00000000
FE00000000
FE00000000
FE00000000
FE00000000
FE00000000
FE00000000
FE00000000
FE00000000
FE00000000
FE00000000
FE00000000
FE00000000
FE00000000
FE00000000
FE00000000
FE00000000
FE00000000
FE00000000
FDFFFFFC00
FBFFFFFE00
F7FFFFFF00
07FFFFFF00
03FFFFFE78
01FFFFFCF8
00FFFFF9F8
00000003F8
00000003F8
00000003F8
00000003F8
00000003F8
00000003F8
00000003F8
00000003F8
00000003F8
00000003F8
00000003F8
00000003F8
00000003F8
00000003F8
00000003F8
00000003F8
00000003F8
00000003F8
00000003F8
01FFFFFDF8
03FFFFFEF8
07FFFFFF78
0FFFFFFFB0
1FFFFFFFC0
1FFFFFFFC0
0FFFFFFF80
ENDCHAR
STARTCHAR 0074
ENCODING 116
SWIDTH 816 0
DWIDTH 49 0
BBX 34 57 6 0
BITMAP
4000000000
E000000000
F000000000
F800000000
FC00000000
FE00000000
FE00000000
FE00000000
FE00000000
FE00000000
FE00000000
FE00000000
FE00000000
FE00000000
FE00000000
FE00000000
FE00000000
FE00000000
FE00000000
FE00000000
FE00000000
FE00000000
FE00000000
FE00000000
FDFFFFFC00
FBFFFFFE00
F7FFFFFF00
07FFFFFF00
F3FFFFFE00
F9FFFFFC00
FCFFFFF800
FE00000000
FE00000000
FE00000000
FE00000000
FE00000000
FE00000000
FE00000000
FE00000000
FE00000000
FE00000000
FE00000000
FE00000000
FE00000000
FE00000000
FE00000000
FE00000000
FE00000000
FE00000000
FE00000000
FDFFFFFC00
FBFFFFFE00
F7FFFFFF00
6FFFFFFF80
1FFFFFFFC0
1FFFFFFFC0
0FFFFFFF80
ENDCHAR
STARTCHAR 0075
ENCODING 117
SWIDTH 816 0
DWIDTH 49 0
BBX 37 30 6 0
BITMAP
E000000038
F0000000F8
F8000000F8
FC000001F8
FE000003F8
FE000003F8
FE000003F8
FE000003F8
FE000003F8
FE000003F8
FE000003F8
FE000003F8
FE000003F8
FE000003F8
FE000003F8
FE000003F8
FE000003F8
FE000003F8
FE000003F8
FE000003F8
FE000003F8
FE000003F8
FE000003F8
FDFFFFFDF8
FBFFFFFEF8
F7FFFFFF78
6FFFFFFFB0
1FFFFFFFC0
1FFFFFFFC0
0FFFFFFF80
ENDCHAR
STARTCHAR 0076
ENCODING 118
SWIDTH 816 0
DWIDTH 49 0
BBX 37 57 6 1
BITMAP
4000000010
E000000038
F000000078
F8000000F8
FC000001F8
FE000003F8
FE000003F8
FE000003F8
FE000003F8
FE000003F8
FE000003F8
FE000003F8
FE000003F8
FE000003F8
FE000003F8
FE000003F8
FE000003F8
FE000003F8
FE000003F8
FE000003F8
FE000003F8
FE000003F8
FE000003F8
FC000003F8
F8000001F8
F000000078
E000000038
E000000038
F0000000F8
F8000000F8
FC000001F8
FE000003F8
FE000003F8
FE000003F8
FE000003F8
FE000003F8
FE000003F8
FE000003F8
FE000003F8
FE000003F8
FE000003F8
FE000003F8
FE000003F8
FE000003F8
FE000003F8
FE000003F8
FE000003F8
FE000003F8
FE000003F8
FE000003F8
FDFFFFFDF8
FBFFFFFEF8
F7FFFFFF78
6FFFFFFFB0
1FFFFFFFC0
1FFFFFFFC0
0FFFFFFF80
ENDCHAR
STARTCHAR 0077
ENCODING 119
SWIDTH 816 0
DWIDTH 49 0
BBX 37 57 6 0
BITMAP
4000000010
E000000038
F000000078
F8000000F8
FC000001F8
FE000003F8
FE000003F8
FE000003F8
FE000003F8
FE000003F8
FE000003F8
FE000003F8
FE000003F8
FE000003F8
FE000003F8
FE000003F8
FE000003F8
FE000003F8
FE000003F8
FE000003F8
FE000003F8
FE000003F8
FE000003F8
FE000003F8
FDFFFFFDF8
FBFFFFFEF8
F7FFFFFF78
07FFFFFF00
F3FFFFFE78
F9FFFFFCF8
FCFFFFF9F8
FE000003F8
FE000003F8
FE000003F8
FE000003F8
FE000003F8
FE000003F8
FE000003F8
FE000003F8
FE000003F8
FE000003F8
FE000003F8
FE000003F8
FE000003F8
FE000003F8
FE000003F8
FE000003F8
FE000003F8
FE000003F8
FE000003F8
FDFFFFFDF8
FBFFFFFEF8
F7FFFFFF78
6FFFFFFFB0
1FFFFFFFC0
1FFFFFFFC0
0FFFFFFF80
ENDCHAR
STARTCHAR 0078
ENCODING 120
SWIDTH 816 0
DWIDTH 49 0
BBX 37 54 6 2
BITMAP
4000000010
E000000038
F000000078
F8000000F8
FC000001F8
FE000003F8
FE000003F8
FE000003F8
FE000003F8
FE000003F8
FE000003F8
FE000003F8
FE000003F8
FE000003F8
FE000003F8
FE000003F8
FE000003F8
FE000003F8
FE000003F8
FE000003F8
FE000003F8
FE000003F8
FE000003F8
FE000003F8
FDFFFFFDF8
FBFFFFFEF8
F7FFFFFF78
07FFFFFF00
F3FFFFFE78
F9FFFFFCF8
FCFFFFF9F8
FE000003F8
FE000003F8
FE000003F8
FE000003F8
FE000003F8
FE000003F8
FE000003F8
FE000003F8
FE000003F8
FE000003F8
FE000003F8
FE000003F8
FE000003F8
FE000003F8
FE000003F8
FE000003F8
FE000003F8
FE000003F8
FE000003F8
FC000001F8
F8000000F8
F000000078
6000000030
ENDCHAR
STARTCHAR 0079
ENCODING 121
SWIDTH 816 0
DWIDTH 49 0
BBX 37 57 6 0
BITMAP
4000000010
E000000038
F000000078
F8000000F8
FC000001F8
FE000003F8
FE000003F8
FE000003F8
FE000003F8
FE000003F8
FE000003F8
FE000003F8
FE000003F8
FE000003F8
FE000003F8
FE000003F8
FE000003F8
FE000003F8
FE000003F8
FE000003F8
FE000003F8
FE000003F8
FE000003F8
FE000003F8
FDFFFFFDF8
FBFFFFFEF8
F7FFFFFF78
07FFFFFF00
03FFFFFE78
01FFFFFCF8
00FFFFF9F8
00000003F8
00000003F8
00000003F8
00000003F8
00000003F8
00000003F8
00000003F8
00000003F8
00000003F8
00000003F8
00000003F8
00000003F8
00000003F8
00000003F8
00000003F8
00000003F8
00000003F8
00000003F8
00000003F8
01FFFFFDF8
03FFFFFEF8
07FFFFFF78
0FFFFFFFB0
1FFFFFFFC0
1FFFFFFFC0
0FFFFFFF80
ENDCHAR
STARTCHAR 007A
ENCODING 122
SWIDTH 816 0
DWIDTH 49 0
BBX 37 59 6 1
BITMAP
0FFFFFFF80
1FFFFFFFC0
0FFFFFFF80
07FFFFFF30
03FFFFFE78
01FFFFFCF8
00FFFFF9F8
00000003F8
00000003F8
00000003F8
00000003F8
00000003F8
00000003F8
00000003F8
00000003F8
00000003F8
00000003F8
00000003F8
00000003F8
00000003F8
00000003F8
00000003F8
00000003F8
00000003F8
00000003F8
00000003F8
00000001F8
00000000F8
0000000078
0000000000
F000000000
F800000000
FC00000000
FE00000000
FE00000000
FE00000000
FE00000000
FE00000000
FE00000000
FE00000000
FE00000000
FE00000000
FE00000000
FE00000000
FE00000000
FE00000000
FE00000000
FE00000000
FE00000000
FE00000000
FE00000000
FE00000000
FDFFFFFC00
FBFFFFFE00
F7FFFFFF00
6FFFFFFF80
1FFFFFFFC0
1FFFFFFFC0
0FFFFFFF80
ENDCHAR
STARTCHAR 00B0
ENCODING 176
SWIDTH 816 0
DWIDTH 49 0
BBX 37 33 6 27
BITMAP
0FFFFFFF80
1FFFFFFFC0
0FFFFFFF80
67FFFFFF30
F3FFFFFE78
F9FFFFFCF8
FCFFFFF9F8
FE000003F8
FE000003F8
FE000003F8
FE000003F8
FE000003F8
FE000003F8
FE000003F8
FE000003F8
FE000003F8
FE000003F8
FE000003F8
FE000003F8
FE000003F8
FE000003F8
FE000003F8
FE000003F8
FE000003F8
FE000003F8
FE000003F8
FDFFFFFDF8
FBFFFFFEF8
F7FFFFFF78
07FFFFFF00
03FFFFFE00
01FFFFFC00
00FFFFF800
ENDCHAR
ENDFONT
